<?xml version="1.0" standalone="no"?>
<!DOCTYPE svg PUBLIC "-//W3C//DTD SVG 20010904//EN"
 "http://www.w3.org/TR/2001/REC-SVG-20010904/DTD/svg10.dtd">
<svg version="1.0" xmlns="http://www.w3.org/2000/svg"
 width="481.000000pt" height="315.000000pt" viewBox="0 0 481.000000 315.000000"
 preserveAspectRatio="xMidYMid meet">

<g transform="translate(0.000000,315.000000) scale(0.100000,-0.100000)"
fill="#000000" stroke="none">
<path d="M4017 2744 c-196 -34 -365 -68 -375 -75 -9 -8 -60 -50 -112 -95 l-95
-81 -611 -282 c-336 -154 -618 -281 -626 -281 -26 0 -78 21 -78 32 0 5 20 35
44 66 25 32 50 70 55 85 15 39 14 101 -3 141 -31 75 -145 146 -235 146 -61 0
-139 -46 -199 -120 -156 -189 -222 -250 -271 -250 -14 0 -77 18 -138 39 -279
98 -453 100 -651 10 -103 -46 -224 -133 -299 -213 -127 -136 -184 -285 -185
-481 -1 -182 45 -357 153 -584 261 -548 616 -722 1077 -527 108 45 178 94 260
180 83 87 133 168 214 348 33 73 69 143 80 154 26 29 103 43 291 54 91 5 167
14 188 23 89 37 139 116 139 219 0 111 -40 151 -212 213 -61 22 -116 48 -122
57 -25 40 14 63 667 395 l636 325 105 -18 105 -17 243 113 242 113 83 -13 c46
-7 86 -11 88 -8 11 11 105 264 101 274 -2 6 -35 28 -73 49 -37 21 -81 45 -98
55 -29 16 -41 15 -388 -46z m372 -84 l39 -19 -10 -48 c-6 -26 -11 -49 -12 -50
-2 -2 -27 2 -58 7 l-55 10 -245 -114 -246 -114 -83 14 c-46 7 -97 14 -114 14
-20 0 -252 -113 -675 -328 -689 -351 -716 -367 -741 -450 -17 -59 -5 -106 40
-151 31 -31 60 -46 149 -75 60 -20 117 -45 126 -55 9 -10 16 -35 16 -60 0 -33
-6 -49 -28 -71 -32 -31 -53 -35 -248 -45 -140 -7 -258 -35 -297 -73 -17 -15
-64 -99 -112 -198 -46 -95 -101 -198 -123 -231 -59 -87 -160 -176 -244 -217
-423 -202 -724 -63 -967 445 -101 211 -141 361 -141 526 0 112 17 190 60 279
82 169 320 336 521 364 100 14 201 -1 365 -56 174 -57 228 -64 289 -34 62 30
142 105 237 223 93 115 127 136 186 119 51 -16 92 -57 92 -93 0 -19 -16 -47
-46 -85 -25 -31 -53 -72 -61 -92 -36 -88 32 -166 166 -190 l54 -10 634 292
635 293 106 89 106 89 305 57 c169 31 314 57 324 57 10 1 35 -8 56 -19z"/>
</g>
</svg>
